<svg width="15" height="15" viewBox="0 0 15 15" fill="none" xmlns="http://www.w3.org/2000/svg">
<path d="M12.655 12.7539C12.628 11.0256 12.0896 9.45401 11.1322 8.31618C10.1805 7.18529 8.89059 6.5625 7.4998 6.5625C6.10902 6.5625 4.81914 7.18529 3.86737 8.31618C2.91095 9.45281 2.37285 11.0222 2.34473 12.7484C2.88555 13.0193 5.12353 14.0625 7.4998 14.0625C10.0694 14.0625 12.1535 13.0254 12.655 12.7539Z" fill="white"/>
<path d="M7.5 6.09375C8.92386 6.09375 10.0781 4.93948 10.0781 3.51562C10.0781 2.09177 8.92386 0.9375 7.5 0.9375C6.07614 0.9375 4.92188 2.09177 4.92188 3.51562C4.92188 4.93948 6.07614 6.09375 7.5 6.09375Z" fill="white"/>
</svg>
