<svg width="108" height="72" viewBox="0 0 108 72" fill="none" xmlns="http://www.w3.org/2000/svg">
<path d="M44.8743 15.0836C44.165 10.0241 38.7745 6.76142 38.7745 6.76142C38.7745 6.76142 41.1387 9.92954 41.8007 13.6178C42.3681 16.8805 41.4224 19.1975 41.4224 19.1975C41.4224 19.1975 40.3349 14.0906 36.2683 9.83496C33.1002 6.43042 27.8988 4.20801 27.8988 4.20801C27.8988 4.20801 25.5818 12.5302 32.0126 20.8997C30.7832 20.0486 29.3647 19.2448 27.6624 18.6773C24.4943 17.637 20.4277 18.1099 20.4277 18.1099C20.4277 18.1099 23.123 26.1484 33.2421 28.6073C26.5748 23.8314 24.5888 19.7649 24.5888 19.7649C24.5888 19.7649 26.5275 19.9067 29.6484 21.3253C31.6816 22.2237 36.7885 25.0136 41.6589 27.9925C39.7674 26.3848 36.9303 23.8787 35.1808 21.7982C29.8375 15.4146 31.5871 9.12568 31.5871 9.12568C31.5871 9.12568 34.7552 10.7807 37.4032 14.6581C39.1527 17.2115 41.517 23.7841 41.517 23.7841C41.517 23.7841 45.7254 21.278 44.8743 15.0836Z" fill="white"/>
<path d="M65.3951 27.8038C60.903 26.4798 56.4582 26.1488 56.4582 26.1488C56.4582 26.1488 59.0116 25.6287 62.0379 25.345C66.8137 24.9194 71.0694 26.1961 71.0694 26.1961C71.0694 26.1961 70.7384 27.7092 69.8872 29.3169C69.8872 29.3169 70.8329 28.8914 71.6368 28.2766C73.8119 26.6689 73.9538 24.9194 73.9538 24.9194C73.9538 24.9194 70.2182 22.8861 64.4494 23.5008C64.3076 23.5008 63.9766 23.5954 63.9766 23.5954C63.9766 23.5954 64.4967 23.359 64.9696 22.9807C68.1377 20.5218 68.847 16.9754 68.847 16.9754C68.847 16.9754 64.6858 16.4553 61.4704 17.1646C55.2288 18.5359 53.1009 23.5954 53.1009 23.5954C53.1009 23.5954 56.3163 21.2784 58.4915 20.5218C61.0922 19.6234 63.8347 19.6707 63.8347 19.6707C63.8347 19.6707 61.4232 23.2171 56.7419 24.6357C53.5738 25.6287 50.0274 25.9124 50.0274 25.9124C50.0274 25.9124 51.9188 18.1576 61.3759 15.7933C67.0501 14.3747 75.3251 15.9352 75.3251 15.9352C75.3251 15.9352 65.537 10.8756 56.8365 14.9422C62.7471 8.60594 58.3023 0 58.3023 0C58.3023 0 52.4389 1.13485 48.7507 4.44482C45.6298 7.23466 44.6841 11.0175 45.2516 13.1926C45.2516 13.1926 46.6228 10.5446 49.5072 7.70751C52.0134 5.29596 55.0396 3.64097 55.0396 3.64097C55.0396 3.64097 56.1272 9.83535 53.4319 16.0297C49.1763 25.9124 43.6439 28.7968 43.6439 28.7968C43.6439 28.7968 53.9521 27.6619 60.3829 29.2224C65.7734 30.5463 68.4214 32.485 68.4214 32.485C68.4214 32.485 60.572 37.9229 47.7577 35.1803C39.199 33.3835 34.9434 30.0262 34.9434 30.0262C34.9434 30.0262 41.2796 36.5516 51.5405 38.3484C68.3268 41.3274 73.8119 33.2889 73.8119 33.2889C73.8119 33.2889 70.5965 29.3169 65.3951 27.8038Z" fill="white"/>
<path d="M21.2302 39.4362C25.4859 39.3889 30.1199 38.1122 30.1199 38.1122C30.1199 38.1122 27.5664 39.8618 26.337 40.4292C25.0603 40.9966 23.7836 41.8478 20.9465 41.5168C16.9272 41.0439 14.4211 39.2944 12.4824 38.0177C12.5297 37.9704 14.9413 39.5308 21.2302 39.4362Z" fill="white"/>
<path d="M19.6707 35.4167C13.9965 33.478 10.6865 30.5463 8.46408 27.851C8.46408 27.851 13.9965 29.7897 19.7653 30.83C24.5411 31.6812 30.9246 33.6671 34.2346 36.5515C31.7285 32.0122 26.3852 28.7495 19.4343 27.8983C4.35025 25.9596 0.70928 22.2241 0 21.6094C0.756566 23.8791 4.44482 33.5253 13.8546 36.5988C21.5148 39.105 30.9246 37.0244 30.9246 37.0244C30.9246 37.0244 26.2907 37.6864 19.6707 35.4167Z" fill="white"/>
<path d="M37.8273 49.1288C37.6382 49.4125 37.3545 49.6016 36.9762 49.6962V49.7435C37.3545 49.7908 37.6855 49.9799 37.9692 50.2163C38.2056 50.4528 38.3475 50.831 38.3475 51.3039C38.3475 51.7295 38.2056 52.0605 37.9692 52.3442C37.7328 52.6279 37.4491 52.8643 37.0708 52.9589C36.7398 53.1007 36.3142 53.148 35.8886 53.148C35.0375 53.148 34.4701 53.1007 34.0918 53.0062V46.8118C34.6119 46.7172 35.1794 46.6699 35.8886 46.6699C37.3545 46.6699 38.0638 47.1901 38.0638 48.1831C38.1111 48.5141 38.0165 48.8451 37.8273 49.1288ZM35.5104 49.4598C35.7941 49.4598 36.0305 49.4598 36.1724 49.4125C36.4561 49.3179 36.6925 49.176 36.8816 48.9869C37.0708 48.7978 37.1653 48.6086 37.1653 48.3722C37.1653 47.7575 36.7398 47.4738 35.9359 47.4738C35.5104 47.4738 35.2266 47.4738 35.0848 47.5211V49.4598H35.5104ZM36.9289 52.0132C37.1653 51.824 37.3072 51.5876 37.3072 51.2566C37.3072 50.5473 36.7871 50.2163 35.7941 50.2163H35.0375V52.2496C35.1794 52.2969 35.4631 52.2969 35.9359 52.2969C36.3142 52.2969 36.6452 52.2023 36.9289 52.0132Z" fill="white"/>
<path d="M39.8612 47.4742C40.3341 46.9068 40.9488 46.623 41.7999 46.623C42.651 46.623 43.313 46.9068 43.7859 47.4742C44.2115 48.0416 44.4479 48.8455 44.4479 49.8385C44.4479 50.8787 44.2115 51.6826 43.7386 52.25C43.2658 52.8174 42.651 53.1011 41.7999 53.1011C40.9488 53.1011 40.2868 52.8174 39.8612 52.25C39.4356 51.6826 39.1992 50.8787 39.1992 49.8857C39.1992 48.8455 39.3884 48.0416 39.8612 47.4742ZM40.6178 51.6353C40.9015 52.1081 41.2798 52.2973 41.7999 52.2973C42.3201 52.2973 42.6983 52.1082 42.982 51.6826C43.2658 51.3043 43.4076 50.6896 43.4076 49.8857C43.4076 49.1765 43.2658 48.609 42.982 48.1362C42.6983 47.6633 42.3201 47.4742 41.7526 47.4742C41.2325 47.4742 40.8542 47.6633 40.5705 48.0889C40.2868 48.5145 40.1449 49.0819 40.1449 49.8857C40.1922 50.595 40.3341 51.1624 40.6178 51.6353Z" fill="white"/>
<path d="M49.6968 52.7706C49.3658 53.007 48.8456 53.1488 48.0891 53.1488C47.7108 53.1488 47.3325 53.1016 47.0015 52.9597C46.6705 52.8178 46.3868 52.6287 46.1031 52.3923C45.8667 52.1558 45.6302 51.7776 45.4884 51.352C45.3465 50.9264 45.252 50.4536 45.252 49.8861C45.252 49.3187 45.3465 48.7986 45.4884 48.373C45.6302 47.9474 45.8667 47.6164 46.1504 47.3327C46.4341 47.0963 46.7178 46.9072 47.0488 46.7653C47.3798 46.6235 47.7108 46.5762 48.0418 46.5762C48.6565 46.5762 49.1766 46.6707 49.5549 46.8126L49.3658 47.6637C49.0821 47.5219 48.7038 47.4746 48.1364 47.4746C47.6162 47.4746 47.1434 47.6637 46.8124 48.042C46.4814 48.4203 46.2922 49.035 46.2922 49.8389C46.2922 50.5954 46.4814 51.2101 46.8124 51.5884C47.1434 52.014 47.6162 52.2031 48.2309 52.2031C48.7038 52.2031 49.1294 52.1086 49.4131 51.9194L49.6968 52.7706Z" fill="white"/>
<path d="M54.6141 47.6148H52.6754V53.0526H51.7297V47.6148H49.791V46.7637H54.5668V47.6148H54.6141Z" fill="white"/>
<path d="M55.4667 47.4742C55.9395 46.9068 56.5542 46.623 57.4054 46.623C58.2565 46.623 58.9185 46.9068 59.3914 47.4742C59.8169 48.0416 60.0534 48.8455 60.0534 49.8385C60.0534 50.8787 59.8169 51.6826 59.3441 52.25C58.8712 52.8174 58.2565 53.1011 57.4054 53.1011C56.5542 53.1011 55.8923 52.8174 55.4667 52.25C55.0411 51.6826 54.8047 50.8787 54.8047 49.8857C54.8047 48.8455 54.9938 48.0416 55.4667 47.4742ZM56.2232 51.6353C56.507 52.1081 56.8852 52.2973 57.4054 52.2973C57.9255 52.2973 58.3038 52.1082 58.5875 51.6826C58.8712 51.3043 59.0131 50.6896 59.0131 49.8857C59.0131 49.1765 58.8712 48.609 58.5875 48.1362C58.3038 47.6633 57.9255 47.4742 57.3581 47.4742C56.838 47.4742 56.4597 47.6633 56.176 48.0889C55.8923 48.5145 55.7504 49.0819 55.7504 49.8857C55.7977 50.595 55.9395 51.1624 56.2232 51.6353Z" fill="white"/>
<path d="M61.991 46.7641V48.7973C61.991 49.5539 62.322 49.9322 63.0313 49.9322C63.5987 49.9322 64.0243 49.7903 64.308 49.5539V46.7168H65.2537V53.0057H64.308V50.3578C63.8825 50.5942 63.3623 50.7361 62.7476 50.7361C61.6128 50.7361 60.998 50.1686 60.998 48.9865V46.7168H61.991V46.7641Z" fill="white"/>
<path d="M70.3128 50.2628H67.6176V53.0053H66.6719V46.7637H67.6176V49.4117H70.3601V46.7637H71.3058V53.0526H70.3601V50.2628H70.3128Z" fill="white"/>
<path d="M72.6293 46.7637H73.575V49.1279C73.8115 49.0807 74.0479 49.0334 74.3316 49.0334C75.7974 49.0334 76.554 49.6954 76.554 50.9721C76.554 51.6813 76.3176 52.2015 75.892 52.5798C75.4664 52.9581 74.8517 53.0999 74.0952 53.0999C73.4805 53.0999 72.9603 53.0526 72.582 52.9581V46.7637H72.6293ZM75.1827 51.9651C75.4192 51.7759 75.561 51.4449 75.561 51.0194C75.561 50.2628 75.0882 49.8845 74.1897 49.8845C73.9533 49.8845 73.7642 49.9318 73.575 49.9791V52.2488C73.7169 52.2961 73.906 52.2961 74.1897 52.2961C74.6153 52.2488 74.9463 52.1542 75.1827 51.9651ZM77.3579 46.7637H78.3036V53.0526H77.3579V46.7637Z" fill="white"/>
<path d="M83.459 49.1288L83.5063 48.3722H83.459L83.0335 49.1761L80.2909 53.0535H79.6289V46.7645H80.5746V50.6892L80.48 51.4458H80.5273L80.9529 50.6419L83.6954 46.7645H84.3574V53.0535H83.4117V49.1288H83.459ZM81.4258 45.2041C81.473 45.6297 81.7095 45.8188 82.1823 45.8188C82.6552 45.8188 82.8916 45.6297 82.9389 45.2041L83.7427 45.346C83.6009 46.0552 83.0807 46.4335 82.1823 46.4335C81.1893 46.4335 80.6219 46.1025 80.5273 45.3932L81.4258 45.2041Z" fill="white"/>
<path d="M34.7078 58.5393H37.214C37.1667 57.9246 36.9775 57.4044 36.6465 57.0734C36.3155 56.7424 35.89 56.5533 35.3225 56.5533C34.8024 56.5533 34.3296 56.6479 33.9513 56.8843L33.7148 56.0804C34.1404 55.844 34.7078 55.7021 35.3698 55.7021C36.221 55.7021 36.883 55.9859 37.4031 56.506C37.9232 57.0261 38.1597 57.8773 38.1597 58.9648C38.1597 59.5323 38.0651 60.0524 37.9232 60.478C37.7814 60.9035 37.545 61.2345 37.2612 61.5182C36.9775 61.7547 36.6465 61.9438 36.3155 62.0384C35.9845 62.133 35.6063 62.2275 35.1807 62.2275C34.566 62.2275 34.0931 62.133 33.7148 61.9438L33.9513 61.0927C34.2823 61.2818 34.7551 61.3291 35.2753 61.3291C35.7954 61.3291 36.2683 61.14 36.5992 60.809C36.9775 60.478 37.1667 59.9578 37.214 59.2485H34.6606V58.5393H34.7078Z" fill="white"/>
<path d="M40.6658 59.3419H40.2875V62.1317H39.3418V55.8428H40.2875V58.7272L40.6185 58.5853L42.5572 55.8428H43.6448L41.6588 58.538L41.2332 58.869L41.7061 59.2473L43.9285 62.179H42.6991L40.6658 59.3419Z" fill="white"/>
<path d="M45.205 56.6002C45.6779 56.0327 46.2926 55.749 47.1437 55.749C47.9949 55.749 48.6569 56.0327 49.1297 56.6002C49.5553 57.1676 49.7917 57.9714 49.7917 58.9644C49.7917 60.0047 49.5553 60.8086 49.0824 61.376C48.6096 61.9434 47.9949 62.2271 47.1437 62.2271C46.2926 62.2271 45.6306 61.9434 45.205 61.376C44.7795 60.8086 44.543 60.0047 44.543 59.0117C44.4958 57.9714 44.7322 57.1676 45.205 56.6002ZM45.9616 60.714C46.2453 61.1868 46.6236 61.376 47.1437 61.376C47.6639 61.376 48.0422 61.1868 48.3259 60.7613C48.6096 60.383 48.7514 59.7683 48.7514 58.9644C48.7514 58.2551 48.6096 57.6877 48.3259 57.2149C48.0422 56.742 47.6639 56.5529 47.0965 56.5529C46.5763 56.5529 46.198 56.742 45.9143 57.1676C45.6306 57.5932 45.4888 58.1606 45.4888 58.9644C45.536 59.721 45.6779 60.2884 45.9616 60.714Z" fill="white"/>
<path d="M54.5672 59.3892H51.8246V62.1317H50.8789V55.8428H51.8246V58.4908H54.5672V55.8428H55.5129V62.1317H54.5672V59.3892Z" fill="white"/>
<path d="M57.3104 56.6002C57.7833 56.0327 58.398 55.749 59.2491 55.749C60.1003 55.749 60.7623 56.0327 61.2351 56.6002C61.6607 57.1676 61.8971 57.9714 61.8971 58.9644C61.8971 60.0047 61.6607 60.8086 61.1878 61.376C60.715 61.9434 60.1003 62.2271 59.2491 62.2271C58.398 62.2271 57.736 61.9434 57.3104 61.376C56.8849 60.8086 56.6484 60.0047 56.6484 59.0117C56.6484 57.9714 56.8849 57.1676 57.3104 56.6002ZM58.067 60.714C58.3507 61.1868 58.729 61.376 59.2491 61.376C59.7693 61.376 60.1476 61.1868 60.4313 60.7613C60.715 60.383 60.8568 59.7683 60.8568 58.9644C60.8568 58.2551 60.715 57.6877 60.4313 57.2149C60.1476 56.742 59.7693 56.5529 59.2018 56.5529C58.6817 56.5529 58.3034 56.742 58.0197 57.1676C57.736 57.5932 57.5941 58.1606 57.5941 58.9644C57.6414 59.721 57.7833 60.2884 58.067 60.714Z" fill="white"/>
<path d="M67.9021 58.3489L67.9966 57.2613H67.9493L67.5711 58.207L66.0579 60.8077H65.7742L64.1665 58.207L63.7882 57.3086H63.7409L63.8828 58.3489V62.1317H62.9844V55.8428H63.7882L65.6324 58.9163L65.9161 59.6256H65.9634L66.2471 58.9163L67.9966 55.8901H68.8005V62.179H67.8548V58.3489H67.9021Z" fill="white"/>
<path d="M74.002 58.207L74.0493 57.4505H74.002L73.5764 58.2543L70.8339 62.1317H70.1719V55.8428H71.1176V59.7675L71.023 60.524H71.0703L71.4959 59.7202L74.2384 55.8428H74.9004V62.1317H73.9547V58.207H74.002Z" fill="white"/>
<path d="M77.1219 55.8432V57.8765C77.1219 58.633 77.4529 59.0113 78.1622 59.0113C78.7296 59.0113 79.1552 58.8694 79.4389 58.633V55.7959H80.3846V62.0849H79.4389V59.4369C79.0133 59.6733 78.4932 59.8152 77.8785 59.8152C76.7436 59.8152 76.1289 59.2477 76.1289 58.0656V55.7959H77.1219V55.8432Z" fill="white"/>
<path d="M81.7578 55.8428H85.3515V56.6939H82.7508V58.4908H85.1151V59.3419H82.7508V61.2806H85.3988V62.1317H81.7578V55.8428Z" fill="white"/>
<path d="M90.6929 61.8965C90.3619 62.133 89.8417 62.2748 89.0852 62.2748C88.7069 62.2748 88.3286 62.2275 87.9976 62.0857C87.6666 61.9438 87.3829 61.7547 87.0992 61.5182C86.8628 61.2818 86.6263 60.9035 86.4845 60.478C86.3426 60.0524 86.248 59.5795 86.248 59.0121C86.248 58.4447 86.3426 57.9246 86.4845 57.499C86.6263 57.0734 86.8628 56.7424 87.1465 56.4587C87.4302 56.2223 87.7139 56.0331 88.0449 55.8913C88.3759 55.7494 88.7069 55.7021 89.0379 55.7021C89.6526 55.7021 90.1727 55.7967 90.551 55.9386L90.3619 56.7897C90.0782 56.6479 89.6999 56.6006 89.1325 56.6006C88.6123 56.6006 88.1395 56.7897 87.8085 57.168C87.4775 57.5463 87.2883 58.161 87.2883 58.9648C87.2883 59.7214 87.4775 60.3361 87.8085 60.7144C88.1395 61.14 88.6123 61.3291 89.227 61.3291C89.6999 61.3291 90.1254 61.2345 90.4092 61.0454L90.6929 61.8965Z" fill="white"/>
<path d="M93.0095 59.3419H92.6313V62.1317H91.6855V55.8428H92.6313V58.7272L92.9623 58.5853L94.901 55.8428H95.9885L94.0025 58.538L93.577 58.869L94.0498 59.2473L96.2722 62.179H95.0428L93.0095 59.3419Z" fill="white"/>
<path d="M101.002 58.207L101.049 57.4505H101.002L100.576 58.2543L97.8339 62.1317H97.1719V55.8428H98.1176V59.7675L98.023 60.524H98.0703L98.4959 59.7202L101.238 55.8428H101.9V62.1317H100.955V58.207H101.002Z" fill="white"/>
<path d="M107.102 58.2079L107.149 57.4513H107.102L106.676 58.2552L103.933 62.1326H103.271V55.8436H104.217V59.7683L104.123 60.5249H104.17L104.595 59.721L107.338 55.8436H108V62.1326H107.054V58.2079H107.102ZM105.068 54.2832C105.116 54.7088 105.352 54.8979 105.825 54.8979C106.298 54.8979 106.534 54.7088 106.581 54.2832L107.385 54.4251C107.243 55.1343 106.723 55.5126 105.825 55.5126C104.832 55.5126 104.264 55.1816 104.17 54.4723L105.068 54.2832Z" fill="white"/>
<path d="M36.5516 70.5491C36.3624 70.5964 36.126 70.5964 35.795 70.5964C35.1803 70.5964 34.7074 70.4072 34.3291 69.9817C33.9509 69.5561 33.7617 68.9414 33.7617 68.1375C33.7617 67.3337 33.9509 66.719 34.3764 66.2461C34.802 65.7733 35.3221 65.5368 35.9841 65.5368C36.2206 65.5368 36.4097 65.5368 36.5516 65.5841V64.7803H37.4973V65.5841C37.6864 65.5368 37.9228 65.5368 38.2538 65.5368C38.8685 65.5368 39.3414 65.7733 39.7197 66.1988C40.098 66.6244 40.2871 67.2391 40.2871 68.043C40.2871 68.8468 40.098 69.5088 39.6724 69.9344C39.2468 70.4072 38.7267 70.5964 38.112 70.5964C37.8283 70.5964 37.6391 70.5964 37.4973 70.5491V71.4475H36.5516V70.5491ZM36.5516 69.7452V66.2934C36.4097 66.2934 36.2678 66.2461 36.0314 66.2461C35.6531 66.2461 35.3221 66.388 35.0857 66.719C34.8493 67.05 34.7074 67.4755 34.7074 68.043C34.7074 68.5631 34.802 68.9887 35.0384 69.3197C35.2748 69.6507 35.5586 69.7925 35.9841 69.7925C36.2678 69.7925 36.457 69.7925 36.5516 69.7452ZM37.4973 66.3407V69.7925C37.5918 69.7925 37.7337 69.7925 37.9701 69.7925C38.3484 69.7925 38.6794 69.6507 38.9158 69.3197C39.1522 69.036 39.2941 68.5631 39.2941 67.9957C39.2941 67.4755 39.1995 67.05 38.9631 66.719C38.7267 66.388 38.443 66.2461 38.0647 66.2461C37.781 66.2934 37.5918 66.2934 37.4973 66.3407Z" fill="white"/>
<path d="M41.705 65.6793C42.1778 65.1118 42.7925 64.8281 43.6437 64.8281C44.4948 64.8281 45.1568 65.1118 45.6296 65.6793C46.0552 66.2467 46.2916 67.0505 46.2916 68.0435C46.2916 69.0838 46.0552 69.8877 45.5824 70.4551C45.1095 71.0225 44.4948 71.3062 43.6437 71.3062C42.7925 71.3062 42.1305 71.0225 41.705 70.4551C41.2794 69.8877 41.043 69.0838 41.043 68.0435C41.043 67.0505 41.2321 66.2467 41.705 65.6793ZM42.4615 69.8404C42.7452 70.3132 43.1235 70.5024 43.6437 70.5024C44.1638 70.5024 44.5421 70.3132 44.8258 69.8877C45.1095 69.4621 45.2514 68.8947 45.2514 68.0908C45.2514 67.3815 45.1095 66.8141 44.8258 66.3413C44.5421 65.8684 44.1638 65.6793 43.5964 65.6793C43.0762 65.6793 42.698 65.8684 42.4142 66.294C42.1305 66.7195 41.9887 67.287 41.9887 68.0908C42.036 68.8001 42.1778 69.3675 42.4615 69.8404Z" fill="white"/>
<path d="M47.3809 65.0169C47.8064 64.9223 48.3266 64.875 48.9886 64.875C49.3196 64.875 49.6033 64.9223 49.887 64.9696C50.1707 65.0169 50.4071 65.1114 50.6908 65.2533C50.9273 65.3951 51.1637 65.5843 51.3055 65.868C51.4474 66.1517 51.542 66.4827 51.542 66.861C51.542 67.5703 51.3055 68.0904 50.8327 68.4687C50.3598 68.7997 49.7924 68.9888 49.0831 68.9888C48.7049 68.9888 48.4684 68.9888 48.3739 68.9415V71.2112H47.4281V65.0169H47.3809ZM48.3739 65.7734V68.0904C48.4684 68.1377 48.6576 68.1377 48.9886 68.1377C50.0288 68.1377 50.5017 67.7121 50.5017 66.861C50.5017 66.4354 50.3598 66.1517 50.0761 65.9626C49.7924 65.7734 49.4614 65.6788 49.0358 65.6788C48.7048 65.7261 48.4684 65.7261 48.3739 65.7734Z" fill="white"/>
<path d="M54.2359 68.0423L54.425 68.8462H54.4723L54.6142 67.995L55.7017 64.9688H56.6947L55.0397 69.1772C54.7087 70.0283 54.425 70.5957 54.2359 70.8794C53.9994 71.1631 53.6684 71.305 53.2429 71.305C52.9119 71.305 52.6282 71.2577 52.3917 71.1158L52.6755 70.312C52.8646 70.4066 53.0537 70.4539 53.2902 70.4539C53.5739 70.4539 53.8103 70.1701 53.9522 69.6027L51.5879 64.9688H52.7227L54.2359 68.0423Z" fill="white"/>
<path d="M62.2747 67.428L62.3693 66.3404H62.322L61.9437 67.2861L60.4306 69.8868H60.1468L58.5391 67.2861L58.1609 66.3877L58.3027 67.428V71.2108H57.4043V64.9219H58.2081L60.0523 67.9954L60.336 68.7047H60.3833L60.667 67.9954L62.4165 64.9692H63.2204V71.2581H62.2747V67.428Z" fill="white"/>
</svg>
