<?xml version="1.0" encoding="UTF-8" standalone="no"?>
<svg
   xmlns:dc="http://purl.org/dc/elements/1.1/"
   xmlns:cc="http://creativecommons.org/ns#"
   xmlns:rdf="http://www.w3.org/1999/02/22-rdf-syntax-ns#"
   xmlns:svg="http://www.w3.org/2000/svg"
   xmlns="http://www.w3.org/2000/svg"
   xmlns:sodipodi="http://sodipodi.sourceforge.net/DTD/sodipodi-0.dtd"
   xmlns:inkscape="http://www.inkscape.org/namespaces/inkscape"
   width="45"
   height="45"
   viewBox="0 0 45 45"
   fill="none"
   version="1.1"
   id="svg4"
   sodipodi:docname="instagram.svg"
   inkscape:version="0.92.4 (5da689c313, 2019-01-14)">
  <metadata
     id="metadata10">
    <rdf:RDF>
      <cc:Work
         rdf:about="">
        <dc:format>image/svg+xml</dc:format>
        <dc:type
           rdf:resource="http://purl.org/dc/dcmitype/StillImage" />
        <dc:title></dc:title>
      </cc:Work>
    </rdf:RDF>
  </metadata>
  <defs
     id="defs8" />
  <sodipodi:namedview
     pagecolor="#ffffff"
     bordercolor="#666666"
     borderopacity="1"
     objecttolerance="10"
     gridtolerance="10"
     guidetolerance="10"
     inkscape:pageopacity="0"
     inkscape:pageshadow="2"
     inkscape:window-width="758"
     inkscape:window-height="480"
     id="namedview6"
     showgrid="false"
     inkscape:zoom="5.2444444"
     inkscape:cx="22.5"
     inkscape:cy="22.5"
     inkscape:window-x="753"
     inkscape:window-y="306"
     inkscape:window-maximized="0"
     inkscape:current-layer="svg4" />
  <path
     d="M22.2595 1C10.5385 1 1 10.537 1 22.2595C1 33.982 10.5385 43.519 22.2595 43.519C33.982 43.519 43.5205 33.982 43.5205 22.2595C43.5205 10.537 33.982 1 22.2595 1"
     stroke="black"
     stroke-width="1.5"
     id="path2" />
  <g
     style="fill:none"
     id="g23"
     transform="translate(11.240487,11.239597)">
    <path
       id="path12"
       d="m 20.072,17.9759 c 0,1.1565 -0.9405,2.0955 -2.097,2.0955 H 4.54253 c -1.1535,0 -2.094,-0.939 -2.094,-2.0955 V 9.01191 h 3.267 c -0.2805,0.696 -0.438,1.45349 -0.438,2.24699 0,3.3015 2.682,5.9865 5.98347,5.9865 3.3,0 5.985,-2.685 5.985,-5.9865 0,-0.7935 -0.159,-1.55099 -0.444,-2.24699 h 3.27 z M 8.13653,9.01341 c 0.702,-0.9705 1.839,-1.6065 3.12297,-1.6065 1.2855,0 2.424,0.636 3.1245,1.6065 0.4575,0.6315 0.729,1.40849 0.729,2.24699 0,2.1225 -1.728,3.852 -3.8535,3.852 -2.12397,0 -3.85047,-1.7295 -3.85047,-3.852 0,-0.8385 0.27,-1.61549 0.7275,-2.24699 z m 11.05197,-6.1755 0.483,-0.0015 v 0.483 3.2265 l -3.696,0.0135 -0.0135,-3.7095 z M 17.9765,0.316406 H 4.54403 c -2.331,0 -4.230004,1.894504 -4.230004,4.230004 v 4.4655 8.96399 c 0,2.3325 1.899004,4.2285 4.230004,4.2285 H 17.9765 c 2.3295,0 4.2285,-1.896 4.2285,-4.2285 V 9.01191 4.54641 c 0,-2.3355 -1.899,-4.230004 -4.2285,-4.230004 z"
       inkscape:connector-curvature="0"
       style="clip-rule:evenodd;fill:#000000;fill-rule:evenodd" />
  </g>
</svg>
