<svg width="100" height="72" viewBox="0 0 100 72" fill="none" xmlns="http://www.w3.org/2000/svg">
<path d="M11.077 10.6174V8.25653H13.8654C16.769 8.25653 18.5086 9.70144 19.0074 11.7914L30.11 13.4427C30.1228 13.2621 30.1228 13.0815 30.1228 12.9009C30.1228 9.34021 28.8693 6.3085 26.3111 3.84442C23.804 1.31584 20.1714 0.0644531 15.4004 0.0644531H0V11.5592L4.63034 9.66273L11.077 10.6174Z" fill="url(#paint0_linear)"/>
<path d="M56.0881 12.5784V8.4888H66.3209V0H34.7783V8.4888H44.9472V11.0561L46.8019 10.7981L56.0881 12.5784Z" fill="url(#paint1_linear)"/>
<path d="M73.5742 0.0517578V15.7264L79.1767 16.7971L84.7152 13.3397V8.48895H92.4793L100 3.78012V0.0517578H73.5742Z" fill="url(#paint2_linear)"/>
<path d="M25.1599 23.08C25.5692 22.7704 25.9529 22.435 26.3239 22.0738C28.7542 19.7387 29.9949 16.8231 30.1228 13.4431L19.0202 11.7917C19.1098 12.1917 19.1737 12.6174 19.1737 13.0689C19.1737 16.2168 17.012 17.7649 12.7526 17.7649H11.077V10.6178L4.61755 9.66309L0 11.5595V21.0546L8.28857 17.4423L25.1599 23.08Z" fill="url(#paint3_linear)"/>
<path d="M45.5357 20.8735L56.0882 20.6025V12.5782L46.802 10.7979L44.9473 11.0559V21.0412L45.5357 20.8735Z" fill="url(#paint4_linear)"/>
<path d="M84.7152 14.2687V13.3398L79.1767 16.7973L73.5742 15.7265V20.1644L80.3151 19.9838L98.005 14.3461V14.2687H84.7152Z" fill="url(#paint5_linear)"/>
<path d="M99.9996 8.48911V3.78027L92.4785 8.48911H99.9996Z" fill="url(#paint6_linear)"/>
<path d="M16.0911 25.8014C19.7749 25.8014 22.7936 24.8854 25.1599 23.0793L8.28857 17.4287L0 21.0539V37.1542L10.0537 28.072L11.141 28.3429V25.8014H16.0911Z" fill="url(#paint7_linear)"/>
<path d="M45.5357 20.8735L44.9473 21.0412V27.8013L47.1345 27.1304L56.0882 27.2981V20.6025L45.5357 20.8735Z" fill="url(#paint8_linear)"/>
<path d="M73.5742 20.164V27.6207L84.7152 27.8272V22.3572H98.005V14.3457L80.3151 19.9834L73.5742 20.164Z" fill="url(#paint9_linear)"/>
<path d="M0 37.1543V37.8381H11.141V28.3559L10.0537 28.085L0 37.1543Z" fill="url(#paint10_linear)"/>
<path d="M44.9473 27.8017V37.8386H56.0882V27.2986L47.1345 27.1309L44.9473 27.8017Z" fill="url(#paint11_linear)"/>
<path d="M73.5742 37.8386H84.728L84.7152 29.3498V27.8275L73.5742 27.6211V37.8386Z" fill="url(#paint12_linear)"/>
<path d="M3.121 52.249H1.79074V55.3581H1.31747V52.249H0V51.8232H3.121V52.249Z" fill="white"/>
<path d="M3.40234 51.8232H3.87561V54.6356L6.21636 51.8232H6.63846V55.3581H6.1652V52.5457L3.83724 55.3581H3.41513V51.8232H3.40234Z" fill="white"/>
<path d="M9.64469 55.3579L8.53187 53.8872L7.41906 55.3579H6.88184L8.26326 53.5518L6.94579 51.8359H7.48301L8.53187 53.2163L9.58074 51.8359H10.1052L8.78769 53.5518L10.1819 55.3579H9.64469Z" fill="white"/>
<path d="M10.9616 55.164C10.693 55.0092 10.4755 54.7899 10.322 54.519C10.1685 54.248 10.0918 53.9384 10.0918 53.5901C10.0918 53.2418 10.1685 52.9322 10.322 52.6612C10.4755 52.3903 10.693 52.171 10.9616 52.0291C11.2302 51.8743 11.5372 51.7969 11.8697 51.7969C12.2023 51.7969 12.5093 51.8743 12.7779 52.0291C13.0465 52.1839 13.264 52.3903 13.4175 52.6612C13.571 52.9322 13.6477 53.2418 13.6477 53.5901C13.6477 53.9384 13.571 54.248 13.4175 54.519C13.264 54.7899 13.0465 55.0092 12.7779 55.164C12.5093 55.3188 12.2023 55.3962 11.8697 55.3962C11.5372 55.3962 11.2302 55.3188 10.9616 55.164ZM12.5477 54.8028C12.7395 54.6867 12.893 54.5319 13.0081 54.3125C13.1233 54.1061 13.1744 53.861 13.1744 53.5901C13.1744 53.3192 13.1233 53.087 13.0081 52.8676C12.893 52.6612 12.7395 52.4935 12.5477 52.3774C12.3558 52.2613 12.1256 52.2097 11.8825 52.2097C11.6395 52.2097 11.4093 52.2613 11.2174 52.3774C11.0255 52.4935 10.8593 52.6483 10.7569 52.8676C10.6418 53.0741 10.5906 53.3192 10.5906 53.5901C10.5906 53.861 10.6418 54.0932 10.7569 54.3125C10.872 54.519 11.0255 54.6867 11.2174 54.8028C11.4093 54.9189 11.6395 54.9705 11.8825 54.9705C12.1256 54.9705 12.343 54.9189 12.5477 54.8028Z" fill="white"/>
<path d="M14.9274 55.164C14.6588 55.0092 14.4413 54.7899 14.2879 54.519C14.1344 54.248 14.0576 53.9384 14.0576 53.5901C14.0576 53.2418 14.1344 52.9322 14.2879 52.6612C14.4413 52.3903 14.6588 52.171 14.9274 52.0291C15.196 51.8743 15.503 51.7969 15.8356 51.7969C16.1681 51.7969 16.4751 51.8743 16.7437 52.0291C17.0123 52.1839 17.2298 52.3903 17.3833 52.6612C17.5368 52.9322 17.6135 53.2418 17.6135 53.5901C17.6135 53.9384 17.5368 54.248 17.3833 54.519C17.2298 54.7899 17.0123 55.0092 16.7437 55.164C16.4751 55.3188 16.1681 55.3962 15.8356 55.3962C15.503 55.3962 15.196 55.3188 14.9274 55.164ZM16.5135 54.8028C16.7053 54.6867 16.8588 54.5319 16.974 54.3125C17.0891 54.1061 17.1402 53.861 17.1402 53.5901C17.1402 53.3192 17.0891 53.087 16.974 52.8676C16.8588 52.6612 16.7053 52.4935 16.5135 52.3774C16.3216 52.2613 16.0914 52.2097 15.8484 52.2097C15.6053 52.2097 15.3751 52.2613 15.1832 52.3774C14.9914 52.4935 14.8251 52.6483 14.7227 52.8676C14.6076 53.0741 14.5565 53.3192 14.5565 53.5901C14.5565 53.861 14.6076 54.0932 14.7227 54.3125C14.8379 54.519 14.9914 54.6867 15.1832 54.8028C15.3751 54.9189 15.6053 54.9705 15.8484 54.9705C16.0914 54.9705 16.3088 54.9189 16.5135 54.8028Z" fill="white"/>
<path d="M19.3659 53.7842H18.5729V55.3581H18.0996V51.8232H18.5729V53.3713H19.3787L20.6066 51.8232H21.1183L19.7369 53.539L21.2206 55.3581H20.6578L19.3659 53.7842Z" fill="white"/>
<path d="M24.6358 53.7451H21.7067C21.7322 54.1063 21.8729 54.4031 22.1288 54.6353C22.3846 54.8675 22.7044 54.9707 23.0881 54.9707C23.3055 54.9707 23.5102 54.932 23.6893 54.8546C23.8683 54.7772 24.0346 54.6611 24.1625 54.5063L24.4311 54.8159C24.2777 55.0094 24.0858 55.1513 23.8428 55.2416C23.6125 55.3448 23.3567 55.3835 23.0753 55.3835C22.7172 55.3835 22.3974 55.3061 22.116 55.1513C21.8346 54.9965 21.6171 54.7772 21.4636 54.5063C21.3101 54.2354 21.2334 53.9257 21.2334 53.5774C21.2334 53.2291 21.3101 52.9195 21.4508 52.6485C21.6043 52.3776 21.809 52.1583 22.0648 52.0164C22.3206 51.8616 22.6148 51.7842 22.9346 51.7842C23.2544 51.7842 23.5486 51.8616 23.8044 52.0164C24.0602 52.1712 24.2649 52.3776 24.4056 52.6485C24.5463 52.9195 24.623 53.2291 24.623 53.5774L24.6358 53.7451ZM22.0904 52.5324C21.8602 52.7518 21.7322 53.0356 21.7067 53.3839H24.1881C24.1625 53.0356 24.0218 52.7518 23.8044 52.5324C23.5742 52.3131 23.2927 52.2099 22.9474 52.2099C22.602 52.2099 22.3206 52.3131 22.0904 52.5324Z" fill="white"/>
<path d="M27.5778 52.145C27.8208 52.3772 27.9488 52.7126 27.9488 53.1642V55.3573H27.5011V54.8026C27.3987 54.9832 27.2325 55.1251 27.0278 55.2283C26.8232 55.3315 26.5801 55.3831 26.2859 55.3831C25.8894 55.3831 25.5824 55.2928 25.3522 55.0993C25.122 54.9058 25.0068 54.6607 25.0068 54.351C25.0068 54.0543 25.1092 53.8092 25.3266 53.6286C25.5441 53.448 25.8894 53.3577 26.3499 53.3577H27.4627V53.1513C27.4627 52.8416 27.3732 52.6094 27.2069 52.4546C27.0406 52.2998 26.7976 52.2224 26.465 52.2224C26.2476 52.2224 26.0301 52.2611 25.8255 52.3385C25.6208 52.4159 25.4417 52.5191 25.301 52.6481L25.0836 52.2869C25.2627 52.1321 25.4801 52.016 25.7231 51.9386C25.9662 51.8612 26.2348 51.8096 26.5034 51.8096C26.9766 51.7967 27.3348 51.9128 27.5778 52.145ZM27.0406 54.8284C27.2325 54.6994 27.3732 54.5317 27.4627 54.2994V53.7189H26.3627C25.7615 53.7189 25.4673 53.9253 25.4673 54.351C25.4673 54.5575 25.5441 54.7252 25.6975 54.8413C25.851 54.9574 26.0685 55.0219 26.3499 55.0219C26.6185 55.0219 26.8487 54.9574 27.0406 54.8284Z" fill="white"/>
<path d="M28.3965 51.8232H28.8698V53.3842H31.0826V51.8232H31.5559V55.3581H31.0826V53.7971H28.8825V55.3581H28.3965V51.8232Z" fill="white"/>
<path d="M32.7575 55.164C32.4889 55.0092 32.2714 54.8028 32.1179 54.519C31.9644 54.248 31.8877 53.9384 31.8877 53.5901C31.8877 53.2418 31.9644 52.9322 32.1179 52.6612C32.2714 52.3903 32.4889 52.171 32.7575 52.0291C33.0261 51.8743 33.3459 51.7969 33.6912 51.7969C33.9982 51.7969 34.2668 51.8614 34.4971 51.9775C34.7401 52.0936 34.9192 52.2742 35.0599 52.4935L34.7017 52.7386C34.5866 52.558 34.4459 52.429 34.2668 52.3516C34.0877 52.2742 33.8959 52.2226 33.6912 52.2226C33.4354 52.2226 33.2052 52.2742 33.0133 52.3903C32.8086 52.5064 32.6552 52.6612 32.54 52.8805C32.4249 53.087 32.3738 53.3321 32.3738 53.603C32.3738 53.8739 32.4249 54.119 32.54 54.3254C32.6552 54.5319 32.8086 54.6996 33.0133 54.8028C33.218 54.9189 33.4482 54.9705 33.6912 54.9705C33.8959 54.9705 34.0877 54.9318 34.2668 54.8415C34.4459 54.7512 34.5866 54.6222 34.7017 54.4545L35.0599 54.6996C34.9192 54.9318 34.7273 55.0995 34.4971 55.2156C34.254 55.3317 33.9854 55.3962 33.6912 55.3962C33.3459 55.3962 33.0389 55.3188 32.7575 55.164Z" fill="white"/>
<path d="M36.8513 53.7842H36.0582V55.3581H35.585V51.8232H36.0582V53.3713H36.8641L38.092 51.8232H38.6036L37.2222 53.539L38.706 55.3581H38.1432L36.8513 53.7842Z" fill="white"/>
<path d="M39.0381 51.8232H39.5114V54.6356L41.8521 51.8232H42.2742V55.3581H41.8009V52.5457L39.473 55.3581H39.0509V51.8232H39.0381Z" fill="white"/>
<path d="M42.8242 51.8228H43.2975V54.6352L45.6382 51.8228H46.0603V55.3576H45.5871V52.5452L43.2591 55.3576H42.837V51.8228H42.8242ZM43.694 51.0874C43.5149 50.9326 43.4254 50.7262 43.4254 50.4424H43.7708C43.7708 50.623 43.8347 50.752 43.9626 50.8681C44.0777 50.9713 44.244 51.0229 44.4231 51.0229C44.615 51.0229 44.7684 50.9713 44.8964 50.8681C45.0243 50.7649 45.0754 50.623 45.0882 50.4424H45.4336C45.4336 50.7262 45.3313 50.9326 45.1522 51.0874C44.9731 51.2422 44.7301 51.3196 44.4359 51.3196C44.1161 51.3196 43.8731 51.2422 43.694 51.0874Z" fill="white"/>
<path d="M3.121 59.8984H1.79074V63.0075H1.31747V59.8984H0V59.4727H3.121V59.8984Z" fill="white"/>
<path d="M6.79199 59.4863L5.03963 63.434C4.89893 63.7694 4.73264 64.0017 4.54078 64.1436C4.34891 64.2855 4.13147 64.35 3.86286 64.35C3.69657 64.35 3.53029 64.3242 3.38959 64.2726C3.24889 64.221 3.12098 64.1436 3.00586 64.0275L3.22331 63.6662C3.40238 63.8468 3.61983 63.9372 3.86286 63.9372C4.01635 63.9372 4.15705 63.8984 4.27217 63.8081C4.38729 63.7178 4.48962 63.563 4.59194 63.3566L4.74543 63.0083L3.19772 59.4863H3.68378L5.00126 62.4922L6.31873 59.4863H6.79199Z" fill="white"/>
<path d="M9.69597 59.6799C9.96458 59.8347 10.1692 60.0411 10.3227 60.312C10.4762 60.583 10.553 60.8926 10.553 61.2409C10.553 61.5892 10.4762 61.9118 10.3227 62.1827C10.1692 62.4536 9.96458 62.6729 9.69597 62.8148C9.42736 62.9696 9.13317 63.0341 8.8006 63.0341C8.5192 63.0341 8.26338 62.9696 8.03314 62.8535C7.8029 62.7374 7.61104 62.5568 7.47034 62.3375V64.2984H6.99707V59.4606H7.44476V60.1572C7.58546 59.925 7.77732 59.7444 8.00756 59.6154C8.2378 59.4864 8.50641 59.4219 8.8006 59.4219C9.13317 59.4606 9.42736 59.5251 9.69597 59.6799ZM9.44015 62.4536C9.64481 62.3375 9.7983 62.1827 9.91342 61.9634C10.0285 61.7569 10.0797 61.5118 10.0797 61.2409C10.0797 60.97 10.0285 60.7378 9.91342 60.5314C9.7983 60.3249 9.64481 60.1572 9.44015 60.0411C9.2355 59.925 9.01805 59.8605 8.77502 59.8605C8.53199 59.8605 8.30175 59.925 8.10989 60.0411C7.91802 60.1572 7.75174 60.3249 7.64941 60.5314C7.53429 60.7378 7.48313 60.9829 7.48313 61.2409C7.48313 61.5118 7.53429 61.744 7.64941 61.9634C7.76453 62.1698 7.91802 62.3375 8.10989 62.4536C8.30175 62.5697 8.53199 62.6213 8.77502 62.6213C9.01805 62.6213 9.2355 62.5697 9.44015 62.4536Z" fill="white"/>
<path d="M11.0391 59.4863H11.5123V62.2987L13.8531 59.4863H14.2752V63.0212H13.8019V60.2088L11.474 63.0212H11.0519V59.4863H11.0391Z" fill="white"/>
<path d="M15.4899 62.8144C15.2213 62.6596 15.0038 62.4532 14.8504 62.1694C14.6969 61.8984 14.6201 61.5888 14.6201 61.2405C14.6201 60.8922 14.6969 60.5825 14.8504 60.3116C15.0038 60.0407 15.2213 59.8214 15.4899 59.6795C15.7585 59.5247 16.0783 59.4473 16.4236 59.4473C16.7306 59.4473 16.9992 59.5118 17.2295 59.6279C17.4725 59.744 17.6516 59.9246 17.7923 60.1439L17.4341 60.389C17.319 60.2084 17.1783 60.0794 16.9992 60.002C16.8202 59.9246 16.6283 59.873 16.4236 59.873C16.1678 59.873 15.9376 59.9246 15.7457 60.0407C15.5411 60.1568 15.3876 60.3116 15.2725 60.5309C15.1573 60.7374 15.1062 60.9825 15.1062 61.2534C15.1062 61.5243 15.1573 61.7694 15.2725 61.9758C15.3876 62.1823 15.5411 62.35 15.7457 62.4532C15.9504 62.5693 16.1806 62.6209 16.4236 62.6209C16.6283 62.6209 16.8202 62.5822 16.9992 62.4919C17.1783 62.4016 17.319 62.2726 17.4341 62.1049L17.7923 62.35C17.6516 62.5822 17.4597 62.7499 17.2295 62.866C16.9865 62.9821 16.7178 63.0466 16.4236 63.0466C16.0655 63.0466 15.7585 62.9692 15.4899 62.8144Z" fill="white"/>
<path d="M20.9649 59.8984H19.6346V63.0075H19.1613V59.8984H17.8311V59.4727H20.9521V59.8984H20.9649Z" fill="white"/>
<path d="M21.7575 62.8144C21.4889 62.6596 21.2714 62.4532 21.1179 62.1694C20.9644 61.8984 20.8877 61.5888 20.8877 61.2405C20.8877 60.8922 20.9644 60.5825 21.1179 60.3116C21.2714 60.0407 21.4889 59.8214 21.7575 59.6795C22.0261 59.5247 22.3459 59.4473 22.6912 59.4473C22.9982 59.4473 23.2668 59.5118 23.4971 59.6279C23.7401 59.744 23.9192 59.9246 24.0599 60.1439L23.7017 60.389C23.5866 60.2084 23.4459 60.0794 23.2668 60.002C23.0877 59.9246 22.8959 59.873 22.6912 59.873C22.4354 59.873 22.2052 59.9246 22.0133 60.0407C21.8086 60.1568 21.6552 60.3116 21.54 60.5309C21.4249 60.7374 21.3738 60.9825 21.3738 61.2534C21.3738 61.5243 21.4249 61.7694 21.54 61.9758C21.6552 62.1823 21.8086 62.35 22.0133 62.4532C22.218 62.5693 22.4482 62.6209 22.6912 62.6209C22.8959 62.6209 23.0877 62.5822 23.2668 62.4919C23.4459 62.4016 23.5866 62.2726 23.7017 62.1049L24.0599 62.35C23.9192 62.5822 23.7273 62.7499 23.4971 62.866C23.254 62.9821 22.9854 63.0466 22.6912 63.0466C22.3331 63.0466 22.0261 62.9692 21.7575 62.8144Z" fill="white"/>
<path d="M25.9655 61.4473H25.1725V63.0212H24.6992V59.4863H25.1725V61.0344H25.9783L27.2063 59.4863H27.7179L26.3493 61.1892L27.833 63.0083H27.2702L25.9655 61.4473Z" fill="white"/>
<path d="M28.3066 59.4863H28.7799V62.2987L31.1207 59.4863H31.5428V63.0212H31.0695V60.2088L28.7415 63.0212H28.3194V59.4863H28.3066Z" fill="white"/>
<path d="M32.6172 59.4861H33.0905V62.2985L35.4312 59.4861H35.8533V63.0209H35.38V60.2085L33.0521 63.0209H32.6172V59.4861ZM33.487 58.7378C33.3079 58.583 33.2184 58.3766 33.2184 58.0928H33.5637C33.5637 58.2734 33.6277 58.4024 33.7556 58.5185C33.8707 58.6217 34.037 58.6733 34.2161 58.6733C34.4079 58.6733 34.5614 58.6217 34.6893 58.5185C34.8172 58.4153 34.8684 58.2734 34.8812 58.0928H35.2266C35.2266 58.3766 35.1242 58.583 34.9452 58.7378C34.7661 58.8926 34.523 58.97 34.2289 58.97C33.9091 58.97 33.666 58.8926 33.487 58.7378Z" fill="white"/>
<path d="M4.3485 70.1938C3.99035 70.5034 3.47871 70.6712 2.82637 70.7099V71.9742H2.3659V70.7099C1.71355 70.6841 1.21471 70.5163 0.856558 70.1938C0.49841 69.8842 0.319336 69.4456 0.319336 68.8908C0.319336 68.349 0.49841 67.9233 0.856558 67.6136C1.21471 67.304 1.71355 67.1363 2.3659 67.1105V65.6914H2.82637V67.1105C3.47871 67.1363 3.99035 67.3169 4.3485 67.6265C4.70665 67.9362 4.88572 68.3619 4.88572 68.9037C4.88572 69.4456 4.70665 69.8713 4.3485 70.1938ZM1.17633 69.8842C1.44494 70.1164 1.84146 70.2583 2.3531 70.2841V67.5362C1.84146 67.562 1.44494 67.691 1.17633 67.9233C0.907722 68.1555 0.767021 68.478 0.767021 68.8908C0.779812 69.3166 0.907722 69.6391 1.17633 69.8842ZM4.01593 69.8842C4.28454 69.652 4.42525 69.3166 4.42525 68.8908C4.42525 68.478 4.28454 68.1555 4.01593 67.9233C3.74732 67.691 3.3508 67.562 2.82637 67.5362V70.2841C3.33801 70.2583 3.73453 70.1293 4.01593 69.8842Z" fill="white"/>
<path d="M6.01139 70.4648C5.74278 70.31 5.52533 70.0907 5.37184 69.8198C5.21835 69.5488 5.1416 69.2392 5.1416 68.8909C5.1416 68.5426 5.21835 68.2329 5.37184 67.962C5.52533 67.6911 5.74278 67.4718 6.01139 67.3299C6.28 67.1751 6.58698 67.0977 6.91955 67.0977C7.25211 67.0977 7.5591 67.1751 7.82771 67.3299C8.09632 67.4847 8.31376 67.6911 8.46726 67.962C8.62075 68.2329 8.69749 68.5426 8.69749 68.8909C8.69749 69.2392 8.62075 69.5488 8.46726 69.8198C8.31376 70.0907 8.09632 70.31 7.82771 70.4648C7.5591 70.6196 7.25211 70.697 6.91955 70.697C6.58698 70.697 6.29279 70.6196 6.01139 70.4648ZM7.59747 70.1036C7.78934 69.9875 7.94283 69.8327 8.05795 69.6133C8.17306 69.4069 8.22423 69.1618 8.22423 68.8909C8.22423 68.62 8.17306 68.3878 8.05795 68.1684C7.94283 67.962 7.78934 67.7943 7.59747 67.6782C7.40561 67.5621 7.17537 67.5105 6.93234 67.5105C6.68931 67.5105 6.45907 67.5621 6.26721 67.6782C6.07534 67.7943 5.90906 67.9491 5.80673 68.1684C5.69161 68.3749 5.64045 68.62 5.64045 68.8909C5.64045 69.1618 5.69161 69.394 5.80673 69.6133C5.92185 69.8198 6.07534 69.9875 6.26721 70.1036C6.45907 70.2197 6.68931 70.2713 6.93234 70.2713C7.17537 70.2713 7.40561 70.2197 7.59747 70.1036Z" fill="white"/>
<path d="M11.8825 67.3293C12.1511 67.4841 12.3558 67.6905 12.5093 67.9614C12.6627 68.2324 12.7395 68.542 12.7395 68.8903C12.7395 69.2386 12.6627 69.5612 12.5093 69.8321C12.3558 70.103 12.1511 70.3223 11.8825 70.4642C11.6139 70.619 11.3197 70.6835 10.9871 70.6835C10.7057 70.6835 10.4499 70.619 10.2197 70.5029C9.98943 70.3868 9.79756 70.2062 9.65686 69.9869V71.9478H9.18359V67.11H9.63128V67.8066C9.77198 67.5744 9.96384 67.3938 10.1941 67.2648C10.4243 67.1358 10.6929 67.0713 10.9871 67.0713C11.3197 67.11 11.6139 67.1874 11.8825 67.3293ZM11.6267 70.103C11.8313 69.9869 11.9848 69.8321 12.0999 69.6128C12.2151 69.4063 12.2662 69.1612 12.2662 68.8903C12.2662 68.6194 12.2151 68.3872 12.0999 68.1808C11.9848 67.9743 11.8313 67.8066 11.6267 67.6905C11.422 67.5744 11.2046 67.5099 10.9615 67.5099C10.7185 67.5099 10.4883 67.5744 10.2964 67.6905C10.1045 67.8066 9.93826 67.9743 9.83593 68.1808C9.72082 68.3872 9.66965 68.6323 9.66965 68.8903C9.66965 69.1612 9.72082 69.3934 9.83593 69.6128C9.95105 69.8192 10.1045 69.9869 10.2964 70.103C10.4883 70.2191 10.7185 70.2707 10.9615 70.2707C11.2046 70.2707 11.422 70.2191 11.6267 70.103Z" fill="white"/>
<path d="M16.2314 67.1357L14.4791 71.0834C14.3384 71.4188 14.1721 71.6511 13.9802 71.793C13.7884 71.9349 13.5709 71.9994 13.3023 71.9994C13.136 71.9994 12.9697 71.9736 12.829 71.922C12.6883 71.8704 12.5604 71.793 12.4453 71.6769L12.6628 71.3156C12.8418 71.4962 13.0593 71.5866 13.3023 71.5866C13.4558 71.5866 13.5965 71.5479 13.7116 71.4576C13.8267 71.3672 13.9291 71.2124 14.0314 71.006L14.1849 70.6577L12.6244 67.1357H13.1104L14.4279 70.1417L15.7454 67.1357H16.2314Z" fill="white"/>
<path d="M20.4785 67.1357V70.6706H20.0436V67.884L18.6238 70.2449H18.4191L16.9993 67.8711V70.6706H16.5645V67.1357H17.0377L18.5215 69.6772L20.0308 67.1357H20.4785Z" fill="white"/>
<defs>
<linearGradient id="paint0_linear" x1="15.0615" y1="0.381171" x2="15.0615" y2="12.8315" gradientUnits="userSpaceOnUse">
<stop stop-color="white"/>
<stop offset="0.1956" stop-color="#FBFBFB"/>
<stop offset="0.396" stop-color="#EFEFEF"/>
<stop offset="0.5986" stop-color="#DADADB"/>
<stop offset="0.8014" stop-color="#BEBEBF"/>
<stop offset="1" stop-color="#9A9B9C"/>
</linearGradient>
<linearGradient id="paint1_linear" x1="50.546" y1="0.381222" x2="50.546" y2="12.8315" gradientUnits="userSpaceOnUse">
<stop stop-color="white"/>
<stop offset="0.1956" stop-color="#FBFBFB"/>
<stop offset="0.396" stop-color="#EFEFEF"/>
<stop offset="0.5986" stop-color="#DADADB"/>
<stop offset="0.8014" stop-color="#BEBEBF"/>
<stop offset="1" stop-color="#9A9B9C"/>
</linearGradient>
<linearGradient id="paint2_linear" x1="86.7839" y1="0.381376" x2="86.7839" y2="17.1037" gradientUnits="userSpaceOnUse">
<stop stop-color="white"/>
<stop offset="0.1956" stop-color="#FBFBFB"/>
<stop offset="0.396" stop-color="#EFEFEF"/>
<stop offset="0.5986" stop-color="#DADADB"/>
<stop offset="0.8014" stop-color="#BEBEBF"/>
<stop offset="1" stop-color="#9A9B9C"/>
</linearGradient>
<linearGradient id="paint3_linear" x1="16.3616" y1="4.64824" x2="13.5129" y2="22.2127" gradientUnits="userSpaceOnUse">
<stop stop-color="white"/>
<stop offset="0.1956" stop-color="#FBFBFB"/>
<stop offset="0.396" stop-color="#EFEFEF"/>
<stop offset="0.5986" stop-color="#DADADB"/>
<stop offset="0.8014" stop-color="#BEBEBF"/>
<stop offset="1" stop-color="#9A9B9C"/>
</linearGradient>
<linearGradient id="paint4_linear" x1="50.5177" y1="10.9977" x2="50.5177" y2="21.8694" gradientUnits="userSpaceOnUse">
<stop stop-color="white"/>
<stop offset="0.1956" stop-color="#FBFBFB"/>
<stop offset="0.396" stop-color="#EFEFEF"/>
<stop offset="0.5986" stop-color="#DADADB"/>
<stop offset="0.8014" stop-color="#BEBEBF"/>
<stop offset="1" stop-color="#9A9B9C"/>
</linearGradient>
<linearGradient id="paint5_linear" x1="85.7893" y1="13.4701" x2="85.7893" y2="24.5513" gradientUnits="userSpaceOnUse">
<stop stop-color="white"/>
<stop offset="0.4029" stop-color="#D0D1D1"/>
<stop offset="0.7959" stop-color="#A9AAAB"/>
<stop offset="1" stop-color="#9A9B9C"/>
</linearGradient>
<linearGradient id="paint6_linear" x1="96.2359" y1="3.87322" x2="96.2359" y2="12.7721" gradientUnits="userSpaceOnUse">
<stop stop-color="white"/>
<stop offset="0.1956" stop-color="#FBFBFB"/>
<stop offset="0.396" stop-color="#EFEFEF"/>
<stop offset="0.5986" stop-color="#DADADB"/>
<stop offset="0.8014" stop-color="#BEBEBF"/>
<stop offset="1" stop-color="#9A9B9C"/>
</linearGradient>
<linearGradient id="paint7_linear" x1="8.71192" y1="17.9635" x2="13.2467" y2="31.9809" gradientUnits="userSpaceOnUse">
<stop stop-color="white"/>
<stop offset="0.1667" stop-color="#F9F9F9"/>
<stop offset="0.3934" stop-color="#E7E8E8"/>
<stop offset="0.6546" stop-color="#CBCBCC"/>
<stop offset="0.9396" stop-color="#A3A4A5"/>
<stop offset="1" stop-color="#9A9B9C"/>
</linearGradient>
<linearGradient id="paint8_linear" x1="50.5177" y1="20.7401" x2="50.5177" y2="28.1065" gradientUnits="userSpaceOnUse">
<stop stop-color="white"/>
<stop offset="0.1667" stop-color="#F9F9F9"/>
<stop offset="0.3934" stop-color="#E7E8E8"/>
<stop offset="0.6546" stop-color="#CBCBCC"/>
<stop offset="0.9396" stop-color="#A3A4A5"/>
<stop offset="1" stop-color="#9A9B9C"/>
</linearGradient>
<linearGradient id="paint9_linear" x1="85.7893" y1="14.6112" x2="85.7893" y2="28.4005" gradientUnits="userSpaceOnUse">
<stop stop-color="white"/>
<stop offset="0.1667" stop-color="#F9F9F9"/>
<stop offset="0.3934" stop-color="#E7E8E8"/>
<stop offset="0.6546" stop-color="#CBCBCC"/>
<stop offset="0.9396" stop-color="#A3A4A5"/>
<stop offset="1" stop-color="#9A9B9C"/>
</linearGradient>
<linearGradient id="paint10_linear" x1="5.56992" y1="28.2681" x2="5.56992" y2="38.2475" gradientUnits="userSpaceOnUse">
<stop stop-color="white"/>
<stop offset="0.1667" stop-color="#F9F9F9"/>
<stop offset="0.3934" stop-color="#E7E8E8"/>
<stop offset="0.6546" stop-color="#CBCBCC"/>
<stop offset="0.9396" stop-color="#A3A4A5"/>
<stop offset="1" stop-color="#9A9B9C"/>
</linearGradient>
<linearGradient id="paint11_linear" x1="50.5177" y1="27.3396" x2="50.5177" y2="38.2882" gradientUnits="userSpaceOnUse">
<stop stop-color="white"/>
<stop offset="0.1667" stop-color="#F9F9F9"/>
<stop offset="0.3934" stop-color="#E7E8E8"/>
<stop offset="0.6546" stop-color="#CBCBCC"/>
<stop offset="0.9396" stop-color="#A3A4A5"/>
<stop offset="1" stop-color="#9A9B9C"/>
</linearGradient>
<linearGradient id="paint12_linear" x1="79.1476" y1="27.8146" x2="79.1476" y2="38.2677" gradientUnits="userSpaceOnUse">
<stop stop-color="white"/>
<stop offset="0.1667" stop-color="#F9F9F9"/>
<stop offset="0.3934" stop-color="#E7E8E8"/>
<stop offset="0.6546" stop-color="#CBCBCC"/>
<stop offset="0.9396" stop-color="#A3A4A5"/>
<stop offset="1" stop-color="#9A9B9C"/>
</linearGradient>
</defs>
</svg>
